<svg xmlns="http://www.w3.org/2000/svg" width="27.556" height="27.556" viewBox="0 0 27.556 27.556">
  <path id="icon-phone" d="M11.14,26.178a2.738,2.738,0,0,0-.26-1.456q-.09-.339-.271-.949t-.322-1.111q-.141-.5-.254-.954c-.008-.052-.036-.213-.085-.48a4.522,4.522,0,0,0-.158-.644,1.043,1.043,0,0,0-.243-.4,1.326,1.326,0,0,0-.886-.241,7.653,7.653,0,0,0-1.321.079,9.874,9.874,0,0,1-1.3.1,1.215,1.215,0,0,1-.841-.2,1.078,1.078,0,0,1-.2-.311,3.337,3.337,0,0,1-.135-.327c-.027-.079-.064-.222-.113-.429s-.077-.321-.085-.344A16.736,16.736,0,0,1,3.984,13.9a16.738,16.738,0,0,1,.688-4.616c.007-.023.036-.137.085-.344s.086-.35.113-.429a3.438,3.438,0,0,1,.135-.327,1.1,1.1,0,0,1,.2-.311,1.215,1.215,0,0,1,.841-.2,9.87,9.87,0,0,1,1.3.1,7.751,7.751,0,0,0,1.321.08,1.331,1.331,0,0,0,.886-.242,1.043,1.043,0,0,0,.243-.4,4.522,4.522,0,0,0,.158-.644c.049-.267.077-.427.085-.48q.113-.452.254-.954t.322-1.111c.12-.406.211-.723.271-.948a2.742,2.742,0,0,0,.26-1.457.9.9,0,0,0-.2-.271,5.365,5.365,0,0,0-.909-.681A6.31,6.31,0,0,0,9.018.129a4.274,4.274,0,0,0-2.573.18A6.181,6.181,0,0,0,3.77,1.833a6.033,6.033,0,0,0-.553.632,6.819,6.819,0,0,0-.508.789q-.26.462-.373.7t-.395.858c-.188.414-.3.664-.35.755A14.456,14.456,0,0,0,.553,8.48,23.667,23.667,0,0,0,0,13.9a23.663,23.663,0,0,0,.553,5.417,14.456,14.456,0,0,0,1.038,2.912c.045.091.162.342.35.756s.32.7.395.857.2.391.373.7a6.819,6.819,0,0,0,.508.789,5.823,5.823,0,0,0,.553.632,6.181,6.181,0,0,0,2.675,1.525,4.284,4.284,0,0,0,2.573.181,6.47,6.47,0,0,0,1.01-.536,5.3,5.3,0,0,0,.909-.682.9.9,0,0,0,.2-.271Z" transform="translate(0 7.901) rotate(-45)" fill="#fff"/>
</svg>
