<svg xmlns="http://www.w3.org/2000/svg" width="119.86" height="61.173" viewBox="0 0 119.86 61.173"><g transform="translate(-494.033 -132.257)"><rect width="119.86" height="61.173" transform="translate(494.033 132.257)" fill="#d60018"/><path d="M520.061,163.906l-3.4-15.056h-8.178l-3.364,15.056h-1.184v3.416h17.174v-3.416m-8.81-11.568h.479l2.17,11.568H510.1l2.2-11.568Z" fill="#fff"/><path d="M526.495,161.943v2.315h7.016v3.014h-8.4a2.726,2.726,0,0,1-3.037-3.04v-6.267c0-2.03.989-3.166,3.016-3.193,0,0,2.389-.045,3.018-.045s2.969.045,2.969.045c2.122.027,2.968,1.065,2.968,3.045v4.126m-4.422-4.531h-3.161V160.3h3.161v-2.892Z" fill="#fff"/><path d="M538.625,154.772h5.822l4.1,12.5h-4.824l-2.175-8.559h-.365l-2.168,8.559h-4.493" fill="#fff"/><path d="M558.217,167.272s-2.566.05-2.976.05c-.7,0-2.987-.05-2.987-.05-1.517-.017-2.968-.546-2.968-2.985v-6.322c0-1.525.526-3.14,3.037-3.193,0,0,2.37-.045,2.94-.045.708,0,3,.045,3,.045,1.494.027,2.995.515,2.995,3.045v6.3c0,1.5-.484,3.112-3.04,3.157m-1.4-9.648h-3.085v6.806h3.085v-6.806Z" fill="#fff"/><path d="M585.772,167.272s-3.018.05-3.64.05-3.623-.05-3.623-.05c-1.935-.017-3.019-.936-3.019-3.061v-1.666c0-2.6,1.666-3.013,3.045-3.013h4.753V157.5h-6.735v-2.726h8.138c2.506,0,3.035,1.522,3.035,3.021V164.6c0,2.025-.6,2.654-1.954,2.671m-2.413-5.227h-3.573v2.528h3.573v-2.528Z" fill="#fff"/><path d="M596.769,157.507h-3.576v2.528h3.576v-2.528Zm-8.057,9.765.224-3.928c.1-1.544.667-2.161,2.111-2.325-1.854-.274-2-1.3-2-2.285v-1.7a2.161,2.161,0,0,1,2.389-2.316h9.7v12.557h-4.369v-5.227h-2.623c-.669,0-.9.143-.936.841l-.288,4.386Z" fill="#fff"/><path d="M572.246,160.995c1.534-.191,1.7-1.3,1.7-2.273v-1.691c0-1.92-1.739-2.316-3.407-2.316h-7.973v12.566h4.419v0h4.912a2.12,2.12,0,0,0,2.416-2.4v-1.615c0-1.839-.62-2.142-2.063-2.268m-2.082,3.583h-3.183v-2.533h3.183v2.533Zm0-4.493h-3.183V157.56h3.183v2.525Z" fill="#fff"/><path d="M562.588,170.967v7.892h-2.249v-7.883h-2.194v-1.541h6.718v1.532" fill="#fff"/><path d="M551.042,174.874v2.406h5.638V178.9H550.7a2.636,2.636,0,0,1-.936-.145,1.454,1.454,0,0,1-.884-1.022,3.278,3.278,0,0,1-.081-.727v-5.564a2.108,2.108,0,0,1,.448-1.454,1.95,1.95,0,0,1,1.482-.505c.388,0,.743-.009,1.06-.028.276,0,.531,0,.772-.007s.383-.01.44-.01.191,0,.434.01.479.007.731.007q.462.028,1.006.028a3.306,3.306,0,0,1,.955.105,1.189,1.189,0,0,1,.581.334,1.167,1.167,0,0,1,.279.583,3.8,3.8,0,0,1,.076.844v3.528m-2.237-3.907h-3.8v2.763h3.8v-2.763Z" fill="#fff"/><path d="M524.308,171v7.857h-2.256v-7.533a1.955,1.955,0,0,1,.448-1.434,2.009,2.009,0,0,1,1.484-.455H528V171" fill="#fff"/><path d="M529.454,176.984a3.52,3.52,0,0,0,.079.844,1.178,1.178,0,0,0,.276.581,1.248,1.248,0,0,0,.583.336,3.585,3.585,0,0,0,.956.112h4.44a2.013,2.013,0,0,0,1.484-.51,2.136,2.136,0,0,0,.446-1.453v-5.57a3.32,3.32,0,0,0-.074-.729,1.481,1.481,0,0,0-.314-.61,1.389,1.389,0,0,0-.579-.4,2.571,2.571,0,0,0-.925-.145h-6v1.615h5.649v2.023h-4.146a1.974,1.974,0,0,0-1.372.386.951.951,0,0,0-.112.093,2.225,2.225,0,0,0-.388,1.431m2.227-.386h3.8v2.766h-3.8V174.6Z" fill="#fff"/><path d="M566.064,176.984a4.151,4.151,0,0,0,.074.844,1.148,1.148,0,0,0,.286.581,1.2,1.2,0,0,0,.576.336,3.58,3.58,0,0,0,.958.112H572.4a2,2,0,0,0,1.479-.51,2.111,2.111,0,0,0,.448-1.453v-5.57a3.443,3.443,0,0,0-.081-.729,1.438,1.438,0,0,0-.3-.61,1.457,1.457,0,0,0-.581-.4,2.561,2.561,0,0,0-.931-.145h-5.987v1.615h5.639v2.023h-4.14a1.975,1.975,0,0,0-1.373.386,1.133,1.133,0,0,0-.109.093,2.195,2.195,0,0,0-.4,1.431m2.235-.386H572.1v2.766H568.3V174.6Z" fill="#fff"/><path d="M547,170.6a1.367,1.367,0,0,0-.882-1.015,2.546,2.546,0,0,0-.934-.154H539.2v1.622h5.639v2.22h-3.588l-.019,1.329h3.59l.017,2.683H539.2V178.9h5.979a2.564,2.564,0,0,0,.934-.145,1.5,1.5,0,0,0,.586-.415,1.415,1.415,0,0,0,.3-.607,2.908,2.908,0,0,0,.085-.727v-1.581l-.023-.019a1.875,1.875,0,0,0-.062-.367,1.429,1.429,0,0,0-.3-.615,1.446,1.446,0,0,0-.586-.4,1.9,1.9,0,0,0-.629-.128v-.024a2.059,2.059,0,0,0,.629-.129,1.459,1.459,0,0,0,.586-.407,1.485,1.485,0,0,0,.3-.613,2.923,2.923,0,0,0,.085-.724v-.667A2.94,2.94,0,0,0,547,170.6" fill="#fff"/><path d="M597.45,171v7.857h-2.261v-7.533a1.985,1.985,0,0,1,.446-1.434,2.016,2.016,0,0,1,1.484-.455h4.016V171" fill="#fff"/><path d="M591.516,169.445s-1.758-.01-2.287-.01c-.438,0-2.2.01-2.2.01a2.114,2.114,0,0,0-2.3,2.408v1.637h-1.956v-4.067h-2.2v9.424h2.2V175.2h1.956v1.436c0,1.84,1.094,2.192,2.247,2.211,0,0,1.734.005,2.26.005l2.237-.005a2.06,2.06,0,0,0,2.3-2.339v-4.76a2.011,2.011,0,0,0-2.26-2.3m-.029,7.835h-4.516v-6.27h4.516v6.27Z" fill="#fff"/><path d="M576.312,178.847h2.235v-1.611h-2.235v1.611Z" fill="#fff"/></g></svg>