<svg id="main-logo-white" xmlns="http://www.w3.org/2000/svg" width="356.349" height="31.452" viewBox="0 0 356.349 31.452">
  <g id="Сгруппировать_483" data-name="Сгруппировать 483" transform="translate(0 0)">
    <path id="Контур_246" data-name="Контур 246" d="M45.743,177.914V165.592c0-1.637.043-3.533.172-4.954L34.11,177.914H26.57V147.755h7.971v12.322c0,1.68-.043,3.576-.173,5l11.805-17.32h7.54v30.159Z" transform="translate(-26.57 -147.109)" fill="#faf5f5"/>
    <path id="Контур_247" data-name="Контур 247" d="M81.986,147.755c6.592,0,10.557,2.412,10.557,7.626a6.4,6.4,0,0,1-4.482,6.549,7.307,7.307,0,0,1,5.688,7.453c0,6.851-6.549,8.531-12.279,8.531h-13.1V147.755Zm-.258,17.622H76.3v6.29h5.429c2.412,0,4.007-.775,4.007-3.145S84.14,165.377,81.728,165.377ZM81.255,154H76.343v5.558l4.912.043c2.111,0,3.317-1.077,3.317-2.8S83.365,154,81.255,154Z" transform="translate(-35.546 -147.109)" fill="#faf5f5"/>
    <path id="Контур_248" data-name="Контур 248" d="M127.609,147.755v6.893H113.865v4.61h12.451v6.851H113.865v4.911h14v6.894H105.894V147.755Z" transform="translate(-43.603 -147.109)" fill="#faf5f5"/>
    <path id="Контур_249" data-name="Контур 249" d="M166.885,147.755v30.159h-7.971v-11.5h-11.2v11.5h-7.971V147.755h7.971V159.3h11.2V147.755Z" transform="translate(-50.87 -147.109)" fill="#faf5f5"/>
    <path id="Контур_250" data-name="Контур 250" d="M203.625,147.755v7.108h-8.488v23.051h-7.971V154.863h-8.531v-7.108Z" transform="translate(-59.222 -147.109)" fill="#faf5f5"/>
    <path id="Контур_251" data-name="Контур 251" d="M319.983,158.44c6.119,0,11.5,2.2,11.5,9.737s-5.385,9.737-11.5,9.737H306.067V147.755h22.878v7.108H314.038v3.576ZM319.9,171.02c1.853,0,3.4-.517,3.4-2.844s-1.551-2.843-3.4-2.843h-5.859v5.687Z" transform="translate(-86.584 -147.109)" fill="#faf5f5"/>
    <path id="Контур_252" data-name="Контур 252" d="M370.945,178.384c-9.134,0-14.3-5.6-15.468-12.193h-4.136v11.547H343.37V147.578h7.971v11.5h4.136c1.163-6.592,6.333-12.15,15.468-12.15,10.771,0,16.157,7.324,16.157,15.726S381.716,178.384,370.945,178.384Zm0-7.324c5.213,0,7.971-3.576,7.971-8.4s-2.757-8.4-7.971-8.4-7.971,3.576-7.971,8.4S365.732,171.06,370.945,171.06Z" transform="translate(-94.594 -146.932)" fill="#faf5f5"/>
    <path id="Контур_253" data-name="Контур 253" d="M416.306,147.755c7.455,0,13.142,2.412,13.142,10.34s-5.687,10.3-13.142,10.341h-3.963v9.478h-7.971V147.755Zm.389,6.893h-4.352v6.894h4.352c2.413,0,4.566-.733,4.566-3.447S419.108,154.648,416.694,154.648Z" transform="translate(-107.692 -147.109)" fill="#faf5f5"/>
    <path id="Контур_254" data-name="Контур 254" d="M455.363,146.932c10.772,0,16.157,7.324,16.157,15.726s-5.385,15.726-16.157,15.726-16.157-7.324-16.157-15.726S444.593,146.932,455.363,146.932Zm0,7.324c-5.213,0-7.97,3.576-7.97,8.4s2.757,8.4,7.97,8.4,7.972-3.576,7.972-8.4S460.577,154.256,455.363,154.256Z" transform="translate(-115.172 -146.932)" fill="#faf5f5"/>
  </g>
  <g id="Сгруппировать_484" data-name="Сгруппировать 484" transform="translate(164.88 5.551)">
    <path id="Контур_255" data-name="Контур 255" d="M254.488,164.367,236.534,154v20.732l17.954-10.366L236.534,154v20.732Z" transform="translate(-236.534 -154.001)" fill="#d60018"/>
    <path id="Контур_256" data-name="Контур 256" d="M259.4,164.367l17.954,10.366V154L259.4,164.367l17.954,10.366V154Z" transform="translate(-241.443 -154.001)" fill="#d60018"/>
  </g>
</svg>
