<svg xmlns="http://www.w3.org/2000/svg" width="453.786" height="40.052" viewBox="0 0 453.786 40.052"><g transform="translate(-26.57 -146.932)"><path d="M50.986,186.161V170.469c0-2.085.055-4.5.219-6.309l-15.033,22h-9.6V147.755H36.721v15.691c0,2.14-.055,4.554-.22,6.365l15.033-22.056h9.6v38.406Z" fill="#1a1818"/><path d="M85.709,147.755c8.395,0,13.443,3.072,13.443,9.711,0,4.225-2.03,7.023-5.707,8.34,4.115,1.206,7.243,4.17,7.243,9.491,0,8.724-8.34,10.864-15.637,10.864H68.372V147.755ZM85.38,170.2H78.467v8.01H85.38c3.072,0,5.1-.987,5.1-4.005S88.452,170.2,85.38,170.2Zm-.6-14.485H78.522v7.078l6.255.055c2.688,0,4.224-1.372,4.224-3.567S87.465,155.71,84.777,155.71Z" fill="#1a1818"/><path d="M133.547,147.755v8.778h-17.5V162.4H131.9v8.724H116.045v6.254h17.831v8.779H105.894V147.755Z" fill="#1a1818"/><path d="M174.307,147.755v38.406h-10.15V171.512H149.892v14.649h-10.15V147.755h10.15v14.7h14.265v-14.7Z" fill="#1a1818"/><path d="M210.458,147.755v9.052H199.649v29.354H189.5V156.807H178.635v-9.052Z" fill="#1a1818"/><path d="M323.788,161.361c7.792,0,14.649,2.8,14.649,12.4s-6.857,12.4-14.649,12.4H306.067V147.755H335.2v9.052H316.217v4.554Zm-.11,16.021c2.36,0,4.335-.658,4.335-3.621s-1.975-3.621-4.335-3.621h-7.461v7.242Z" fill="#1a1818"/><path d="M378.485,186.984c-11.632,0-18.216-7.133-19.7-15.527h-5.267v14.7H343.37V147.755h10.151V162.4h5.267c1.481-8.4,8.065-15.472,19.7-15.472,13.716,0,20.575,9.327,20.575,20.026S392.2,186.984,378.485,186.984Zm0-9.327c6.639,0,10.15-4.554,10.15-10.7s-3.511-10.7-10.15-10.7-10.151,4.554-10.151,10.7S371.846,177.657,378.485,177.657Z" fill="#1a1818"/><path d="M419.569,147.755c9.493,0,16.735,3.072,16.735,13.167s-7.242,13.113-16.735,13.169h-5.047v12.07H404.371V147.755Zm.495,8.778h-5.542v8.779h5.542c3.073,0,5.815-.933,5.815-4.39S423.137,156.533,420.064,156.533Z" fill="#1a1818"/><path d="M459.781,146.932c13.718,0,20.575,9.327,20.575,20.026s-6.857,20.026-20.575,20.026-20.575-9.327-20.575-20.026S446.066,146.932,459.781,146.932Zm0,9.327c-6.638,0-10.149,4.554-10.149,10.7s3.511,10.7,10.149,10.7,10.152-4.554,10.152-10.7S466.421,156.259,459.781,156.259Z" fill="#1a1818"/><path d="M259.4,167.2,236.534,154v26.4L259.4,167.2,236.534,154v26.4Z" fill="#d60018"/><path d="M259.4,167.2l22.864,13.2V154L259.4,167.2l22.864,13.2V154Z" fill="#d60018"/></g></svg>